<?xml version="1.0" encoding="utf-8"?>
<!-- Generator: Adobe Illustrator 22.0.1, SVG Export Plug-In . SVG Version: 6.00 Build 0)  -->
<svg version="1.1" id="Capa_1" xmlns="http://www.w3.org/2000/svg" xmlns:xlink="http://www.w3.org/1999/xlink" x="0px" y="0px"
	 viewBox="0 0 89.5 89.7" style="enable-background:new 0 0 89.5 89.7;" xml:space="preserve">
<style type="text/css">
	.st0{enable-background:new    ;}
	.st1{fill:#FFFFFF;}
</style>
<g>
	<circle cx="45" cy="45" r="44"/>
</g>
<g class="st0">
	<path class="st1" d="M30.4,64.8l13.4-20.7c0.2-0.4,0.4-0.7,0.6-0.9c0.2-0.3,0.3-0.5,0.5-0.7c1.6-2.5,2.8-4.6,3.5-6.2
		s1.1-3.5,1.1-5.6c0-4.2-1.5-6.3-4.4-6.3c-2,0-3.4,0.8-4.2,2.3c-0.8,1.6-1.2,3.7-1.2,6.3v2.3h-9.1v-2.4c0-5.1,1.1-9.1,3.4-11.9
		c2.3-2.9,5.9-4.3,10.8-4.3c4.6,0,8,1.2,10.4,3.7c2.4,2.5,3.5,5.9,3.5,10.4c0,2.8-0.5,5.2-1.4,7.4c-1,2.1-2.4,4.8-4.5,7.9l-0.8,1.2
		L40.9,64h16.5v7.4h-27V64.8z"/>
</g>
</svg>
