<?xml version="1.0" encoding="utf-8"?>
<!-- Generator: Adobe Illustrator 22.0.1, SVG Export Plug-In . SVG Version: 6.00 Build 0)  -->
<svg version="1.1" id="Capa_1" xmlns="http://www.w3.org/2000/svg" xmlns:xlink="http://www.w3.org/1999/xlink" x="0px" y="0px"
	 viewBox="0 0 300 61.3" style="enable-background:new 0 0 300 61.3;" xml:space="preserve">
<style type="text/css">
	.st0{fill:#FFFFFF;}
	.st1{fill:url(#SVGID_1_);}
	.st2{fill:url(#SVGID_2_);}
	.st3{fill:url(#SVGID_3_);}
</style>
<g>
	<g>
		<path class="st0" d="M42.4,31.3v13.9h-2.7V11.8h11.5c3.5,0,6.2,0.9,8.1,2.7c1.9,1.8,2.9,4.1,2.9,7.1c0,3-1,5.3-2.9,7.1
			c-1.9,1.8-4.6,2.7-8.1,2.7H42.4z M42.4,29h8.8c2.8,0,4.8-0.7,6.2-2.1c1.4-1.4,2.1-3.2,2.1-5.3c0-2.1-0.7-3.9-2.1-5.3
			c-1.4-1.4-3.5-2.1-6.2-2.1h-8.8V29z"/>
	</g>
	<g>
		<path class="st0" d="M77.1,45.7c-3.1,0-5.7-1.1-7.7-3.4c-2.1-2.3-3.1-5.2-3.1-8.7v-1.3c0-3.6,1-6.5,3.1-8.8c2-2.3,4.5-3.5,7.4-3.5
			c3,0,5.4,1,7.2,2.9c1.7,1.9,2.6,4.5,2.6,7.7v2.3H69v0.7c0,2.8,0.7,5.1,2.2,7s3.4,2.8,5.9,2.8c1.7,0,3.2-0.2,4.4-0.7
			c1.2-0.5,2.2-1.2,3.1-2l1.2,1.9c-0.9,1-2.1,1.8-3.5,2.3C80.7,45.4,79,45.7,77.1,45.7z M76.7,22.3c-2,0-3.7,0.8-5.1,2.3
			c-1.4,1.5-2.2,3.5-2.4,5.8l0,0.1h14.6v-0.7c0-2.2-0.6-4-1.9-5.4C80.6,23,78.9,22.3,76.7,22.3z"/>
	</g>
	<g>
		<path class="st0" d="M103.4,22.8l-2-0.1c-1.7,0-3.1,0.5-4.3,1.5c-1.1,1-1.9,2.3-2.4,4v17.1H92V20.4h2.4l0.3,4.1v0.3
			c0.7-1.5,1.7-2.7,2.9-3.6c1.2-0.9,2.6-1.3,4.3-1.3c0.4,0,0.7,0,1,0.1c0.3,0.1,0.6,0.1,0.8,0.2L103.4,22.8z"/>
	</g>
	<g>
		<path class="st0" d="M110.7,24.6c0.8-1.5,1.9-2.6,3.3-3.5c1.4-0.8,3-1.2,4.8-1.2c2.6,0,4.6,0.8,6,2.4c1.4,1.6,2.1,4.1,2.1,7.6
			v15.3h-2.8V29.8c0-2.7-0.5-4.6-1.6-5.8c-1.1-1.2-2.5-1.8-4.4-1.8c-1.9,0-3.5,0.5-4.7,1.5s-2.2,2.3-2.8,3.9v17.5H108V9.4h2.8V24.6z
			"/>
	</g>
	<g>
		<path class="st0" d="M143.4,45.7c-3.1,0-5.7-1.1-7.7-3.4c-2.1-2.3-3.1-5.2-3.1-8.7v-1.3c0-3.6,1-6.5,3.1-8.8
			c2-2.3,4.5-3.5,7.4-3.5c3,0,5.4,1,7.2,2.9c1.7,1.9,2.6,4.5,2.6,7.7v2.3h-17.5v0.7c0,2.8,0.7,5.1,2.2,7s3.4,2.8,5.9,2.8
			c1.7,0,3.2-0.2,4.4-0.7c1.2-0.5,2.2-1.2,3.1-2l1.2,1.9c-0.9,1-2.1,1.8-3.5,2.3C147.1,45.4,145.4,45.7,143.4,45.7z M143.1,22.3
			c-2,0-3.7,0.8-5.1,2.3c-1.4,1.5-2.2,3.5-2.4,5.8l0,0.1h14.6v-0.7c0-2.2-0.6-4-1.9-5.4C147,23,145.3,22.3,143.1,22.3z"/>
	</g>
	<g>
		<path class="st0" d="M174.1,45.2c-0.2-0.8-0.3-1.6-0.4-2.2c-0.1-0.6-0.1-1.2-0.1-1.9c-0.9,1.3-2.1,2.4-3.7,3.2
			c-1.5,0.9-3.3,1.3-5.2,1.3c-2.4,0-4.3-0.6-5.6-1.9s-2-3-2-5.2c0-2.3,1-4.1,3-5.5c2-1.4,4.7-2.1,8-2.1h5.5V28
			c0-1.8-0.6-3.2-1.7-4.2c-1.1-1-2.7-1.5-4.8-1.5c-1.9,0-3.5,0.5-4.8,1.4s-1.9,2.1-1.9,3.5l-2.5,0l0-0.1c-0.1-1.9,0.8-3.5,2.5-5
			c1.8-1.5,4.1-2.2,6.8-2.2c2.7,0,4.9,0.7,6.6,2.1s2.5,3.4,2.5,6v12.2c0,0.9,0,1.7,0.1,2.5s0.3,1.6,0.5,2.5H174.1z M165,43.3
			c2,0,3.7-0.5,5.2-1.4c1.5-0.9,2.6-2.1,3.3-3.5v-5.2H168c-2.5,0-4.5,0.5-6,1.6c-1.5,1.1-2.2,2.4-2.2,4c0,1.3,0.5,2.4,1.4,3.3
			C162.1,42.9,163.4,43.3,165,43.3z"/>
	</g>
	<g>
		<path class="st0" d="M182.5,33c0-4,0.8-7.1,2.5-9.5c1.7-2.4,4-3.6,7-3.6c1.7,0,3.2,0.4,4.5,1.1c1.3,0.7,2.3,1.8,3.2,3.1V9.4h2.7
			v35.8H200l-0.2-3.6c-0.8,1.3-1.9,2.3-3.2,3c-1.3,0.7-2.8,1.1-4.6,1.1c-3,0-5.3-1.1-7-3.3c-1.7-2.2-2.5-5.2-2.5-8.9V33z
			 M185.3,33.5c0,3,0.6,5.4,1.8,7.2c1.2,1.8,3,2.7,5.4,2.7c1.8,0,3.3-0.4,4.4-1.2c1.2-0.8,2.1-1.9,2.8-3.3V27.1
			c-0.6-1.4-1.5-2.6-2.7-3.5s-2.6-1.3-4.5-1.3c-2.4,0-4.2,1-5.5,3c-1.2,2-1.8,4.6-1.8,7.8V33.5z"/>
	</g>
	<g>
		<path class="st0" d="M216,40.1h14.9v5.2h-21.6V11.8h6.7V40.1z"/>
	</g>
	<g>
		<path class="st0" d="M253.2,38h-11.7l-2.3,7.2h-6.8l11.5-33.4h6.9l11.5,33.4h-6.8L253.2,38z M243.1,32.8h8.4l-4.1-13.1h-0.1
			L243.1,32.8z"/>
	</g>
	<g>
		<path class="st0" d="M265.3,45.2V11.8h11.3c3.9,0,7,0.8,9.2,2.3c2.2,1.5,3.3,3.8,3.3,6.9c0,1.5-0.4,2.9-1.2,4.1
			c-0.8,1.2-2,2.1-3.6,2.7c2,0.4,3.5,1.3,4.5,2.8c1,1.4,1.5,3,1.5,4.9c0,3.2-1.1,5.6-3.2,7.3c-2.1,1.6-5.1,2.5-9,2.5H265.3z
			 M272,25.8h4.8c1.8,0,3.2-0.4,4.1-1.1c1-0.7,1.4-1.8,1.4-3.2c0-1.5-0.5-2.7-1.5-3.4c-1-0.7-2.4-1.1-4.4-1.1H272V25.8z M272,30.5
			v9.6h6.2c1.8,0,3.1-0.4,4.1-1.2c0.9-0.8,1.4-1.9,1.4-3.4c0-1.6-0.4-2.9-1.2-3.7c-0.8-0.9-2.1-1.3-3.8-1.3H272z"/>
	</g>
</g>
<g>
	<g>
		<g>
			<path class="st0" d="M8,28.2c3.3,0,6.6,0,9.9,0c0.6,0,0.6-0.1,0.6-0.5c0-2.9,0-5.7,0-8.6c0-1,2.1-1.2,2.1-0.2c0,0.1,0,0.1,0,0.2
				c0,1.7,0,3.4,0,5.1c0,0.3,0,0.6,0,0.8c0,8.9,0,17.8,0,26.7c0,1.1,0,2.3-0.4,3.4c-1.2,2.5-3.2,3.8-6,3.8c-1,0-2,0-3,0
				c-3.2-0.1-5.8-2.6-5.8-5.8c0-3.9,0-7.8,0-11.7c0-0.9,0-1.8,0-2.7c0-0.3,0-0.6,0-1c0-4.6,0-9.3,0-13.9c0-1.5,0.1-2.9,0-4.4
				c0-0.3,0-0.7,0.2-0.9c0.3-0.2,1-0.3,1.4-0.2c0.5,0.1,0.5,0.6,0.5,1c0,2.6,0,5.2,0,7.8c0,0.2,0,0.4,0,0.6c0,0.1,0,0.2,0,0.4
				C7.5,28.3,7.8,28.2,8,28.2z M18.4,42.1c0-3.7,0-7.3,0-11c0-0.7-0.2-0.9-0.9-0.9c-3.1,0-6.2,0-9.4,0c-0.6,0-0.8,0.2-0.8,0.8
				c0,7.3,0,14.6,0,22c0,2.1,1.7,3.7,3.8,3.8c1,0,2,0,3,0c2.6,0,4.2-1.6,4.2-4.2C18.4,49.1,18.4,45.6,18.4,42.1z"/>
		</g>
		<g>
			<path class="st0" d="M21.2,24.6c0.9,0,2.4,0.2,2.7-0.6c0.3-0.7,0.2-1.7,0.2-2.6c0-2.1,0.1-4.2,0-6.2c0-0.2,0-0.5,0.2-0.7
				c0.2-0.1,0.5-0.1,0.8-0.1c0.3,0,0.6,0,0.8,0.1c0.3,0.1,0.3,0.4,0.3,0.7c0,11.4,0,22.7,0,34.1c0,2.4-1.4,4.1-3.5,5.2
				c-0.4,0.2-0.9,0.5-1.4,0.5c-0.3-0.8-0.1-2.1,0.4-2.3c1.8-0.8,2.5-2.2,2.5-4.2c0-7,0-14.1,0-21.1c0-0.8-0.1-1.1-1-1.1
				C21.3,26.3,21,26.7,21.2,24.6z"/>
		</g>
		<g>
			<path class="st0" d="M3.7,16.6c-0.8-0.8-1.1-2.1-0.6-3.3c0.6-1.2,1.6-1.6,3-1.6c4.5,0,9.1,0,13.6,0c1.3,0,2.4,0.4,3,1.5
				c0.6,1.2,0.3,2.3-0.5,3.4c-0.6,0.5-1.3,0.8-2.1,0.8c-4.8,0-9.6,0-14.4,0C4.9,17.4,4.2,17.1,3.7,16.6z M12.9,15.3c2.3,0,4.7,0,7,0
				c0.5,0,1-0.1,1-0.8c0-0.6-0.4-0.8-1-0.8c-0.9,0-1.7,0-2.6,0c-3.8,0-7.6,0-11.3,0c-0.6,0-1.1,0-1.1,0.8c0,0.7,0.6,0.7,1.1,0.7
				C8.3,15.3,10.6,15.3,12.9,15.3z"/>
		</g>
		<g>
			<path class="st0" d="M23.5,11.3C23.5,11.3,23.5,11.3,23.5,11.3c0.8,0,1.5,0,2.2,0c0.5,0,0.9-0.2,0.9-0.8c0-0.6-0.5-0.7-1-0.7
				c-2.6,0-5.3,0-7.9,0c-1.3,0-2.6,0-3.9,0c-0.7,0-1.3,0-2,0c-0.5,0-1,0-1.2,0.5c-0.3,0.6-0.6,0.8-1.3,0.8c-0.2,0-0.5,0-0.7-0.2
				C8.1,10.5,8.7,9.2,9,8.8c0.5-0.7,1.3-1.1,2.2-1.1c4.9,0,9.9,0,14.8,0c1.5,0,2.7,1.3,2.7,2.8c0,1.3-1,2.6-2.3,2.8
				c-0.7,0.1-1.5,0.1-2.2,0.1c-0.2,0-0.5,0-0.7-0.1s-0.4-0.2-0.6-0.4c-0.2-0.3-0.2-0.6-0.2-1c0-0.2,0-0.3,0.2-0.5
				C23.1,11.4,23.3,11.3,23.5,11.3z"/>
		</g>
		<linearGradient id="SVGID_1_" gradientUnits="userSpaceOnUse" x1="21.1844" y1="39.3645" x2="23.5574" y2="39.3645">
			<stop  offset="0" style="stop-color:#1A93DA"/>
			<stop  offset="1" style="stop-color:#2154CF"/>
		</linearGradient>
		<path class="st1" d="M21.2,39.4c0-3.8,0-7.6,0-11.5c0-0.3,0-0.7,0.3-0.9c0.4-0.3,1-0.3,1.4-0.1c0.5,0.1,0.7,0.5,0.7,0.9
			c0,5.1,0,10.2,0,15.4c0,1.9,0,3.7,0,5.6c0,1.2-0.6,2.2-1.6,2.9c-0.2,0.1-0.4,0.4-0.7,0.2c-0.1-0.1-0.1-0.4-0.1-0.6
			C21.2,47.3,21.2,43.3,21.2,39.4z"/>
		<linearGradient id="SVGID_2_" gradientUnits="userSpaceOnUse" x1="7.9208" y1="43.5718" x2="17.8426" y2="43.5718">
			<stop  offset="0" style="stop-color:#1A93DA"/>
			<stop  offset="1" style="stop-color:#2154CF"/>
		</linearGradient>
		<path class="st2" d="M17.8,42.3c0,3.4,0,6.9,0,10.3c0,2-1.4,3.5-3.4,3.6c-1,0-2.1,0-3.1,0c-1.9-0.1-3.4-1.5-3.4-3.4c0-7,0-14,0-21
			c0-0.7,0.2-0.8,0.9-0.8c2.7,0,5.4,0,8.1,0c0.8,0,0.9,0.3,0.9,1C17.8,35.4,17.8,38.8,17.8,42.3C17.8,42.3,17.8,42.3,17.8,42.3z
			 M11.3,47.4c0.6,0,1-0.5,1-1.1c0-0.7-0.4-1.1-1.1-1.2c-0.7,0-1.1,0.4-1.2,1.1C9.9,46.8,10.4,47.3,11.3,47.4z M15.7,42.6
			c0-0.7-0.4-1.1-1.1-1.2c-0.6,0-1.3,0.6-1.2,1.2c0.1,0.7,0.5,1.1,1.1,1.1C15.3,43.7,15.7,43.3,15.7,42.6z M15.8,50.3
			c0-0.7-0.5-1.1-1.1-1.2c-0.7,0-1.1,0.4-1.2,1.1c-0.1,0.6,0.5,1.2,1.2,1.2C15.4,51.4,15.7,50.9,15.8,50.3z M11.2,39.8
			c0.8-0.1,1.1-0.6,1.1-1.2c0-0.6-0.5-1.1-1.2-1.1c-0.6,0-1.2,0.6-1.1,1.2C10.1,39.5,10.5,39.8,11.2,39.8z"/>
	</g>
	<g>
		<g>
			<path class="st0" d="M26.9,19.9c0.9,0,2.4,0.2,2.7-0.6c0.3-0.7,0.2-1.7,0.2-2.6c0-2.1,0.1-4.2,0-6.2c0-0.2,0-0.5,0.2-0.7
				c0.2-0.1,0.5-0.1,0.8-0.1c0.3,0,0.6,0,0.8,0.1c0.3,0.1,0.3,0.4,0.3,0.7c0,11.4,0,22.7,0,34.1c0,2.4-1.4,4.1-3.5,5.2
				c-0.4,0.2-0.9,0.5-1.4,0.5c-0.3-0.8-0.1-2.1,0.4-2.3c1.8-0.8,2.5-2.2,2.5-4.2c0-7,0-14.1,0-21.1c0-0.8-0.1-1.1-1-1.1
				C27,21.6,26.7,22,26.9,19.9z"/>
		</g>
		<g>
			<path class="st0" d="M29.2,6.6C29.2,6.6,29.2,6.6,29.2,6.6c0.8,0,1.5,0,2.2,0c0.5,0,0.9-0.2,0.9-0.8c0-0.6-0.5-0.7-1-0.7
				c-2.6,0-5.3,0-7.9,0c-1.3,0-2.6,0-3.9,0c-0.7,0-1.3,0-2,0c-0.5,0-1,0-1.2,0.5c-0.3,0.6-0.6,0.8-1.3,0.8c-0.2,0-0.5,0-0.7-0.2
				c-0.5-0.4,0.1-1.7,0.4-2.1C15.2,3.4,16,3,16.9,3c4.9,0,9.9,0,14.8,0c1.5,0,2.7,1.3,2.7,2.8c0,1.3-1,2.6-2.3,2.8
				c-0.7,0.1-1.5,0.1-2.2,0.1c-0.2,0-0.5,0-0.7-0.1c-0.2-0.1-0.4-0.2-0.6-0.4c-0.2-0.3-0.2-0.6-0.2-1c0-0.2,0-0.3,0.2-0.5
				C28.7,6.7,29,6.6,29.2,6.6z"/>
		</g>
		<linearGradient id="SVGID_3_" gradientUnits="userSpaceOnUse" x1="26.8707" y1="34.6493" x2="29.2438" y2="34.6493">
			<stop  offset="0" style="stop-color:#1A93DA"/>
			<stop  offset="1" style="stop-color:#2154CF"/>
		</linearGradient>
		<path class="st3" d="M26.9,34.7c0-3.8,0-7.6,0-11.5c0-0.3,0-0.7,0.3-0.9c0.4-0.3,1-0.3,1.4-0.1c0.5,0.1,0.7,0.5,0.7,0.9
			c0,5.1,0,10.2,0,15.4c0,1.9,0,3.7,0,5.6c0,1.2-0.6,2.2-1.6,2.9c-0.2,0.1-0.4,0.4-0.7,0.2c-0.1-0.1-0.1-0.4-0.1-0.6
			C26.9,42.6,26.9,38.6,26.9,34.7z"/>
	</g>
</g>
</svg>
