<?xml version="1.0" encoding="utf-8"?>
<!-- Generator: Adobe Illustrator 22.0.1, SVG Export Plug-In . SVG Version: 6.00 Build 0)  -->
<svg version="1.1" id="Capa_1" xmlns="http://www.w3.org/2000/svg" xmlns:xlink="http://www.w3.org/1999/xlink" x="0px" y="0px"
	 viewBox="0 0 40.3 61.3" style="enable-background:new 0 0 40.3 61.3;" xml:space="preserve">
<style type="text/css">
	.st0{fill:#232222;}
	.st1{fill:url(#SVGID_1_);}
	.st2{fill:url(#SVGID_2_);}
	.st3{fill:url(#SVGID_3_);}
</style>
<g>
	<g>
		<g>
			<path class="st0" d="M8,28.2c3.3,0,6.6,0,9.9,0c0.6,0,0.6-0.1,0.6-0.5c0-2.9,0-5.7,0-8.6c0-1,2.1-1.2,2.1-0.2c0,0.1,0,0.1,0,0.2
				c0,1.7,0,3.4,0,5.1c0,0.3,0,0.6,0,0.8c0,8.9,0,17.8,0,26.7c0,1.1,0,2.3-0.4,3.4c-1.2,2.5-3.2,3.8-6,3.8c-1,0-2,0-3,0
				c-3.2-0.1-5.8-2.6-5.8-5.8c0-3.9,0-7.8,0-11.7c0-0.9,0-1.8,0-2.7c0-0.3,0-0.6,0-1c0-4.6,0-9.3,0-13.9c0-1.5,0.1-2.9,0-4.4
				c0-0.3,0-0.7,0.2-0.9c0.3-0.2,1-0.3,1.4-0.2c0.5,0.1,0.5,0.6,0.5,1c0,2.6,0,5.2,0,7.8c0,0.2,0,0.4,0,0.6c0,0.1,0,0.2,0,0.4
				C7.5,28.3,7.8,28.2,8,28.2z M18.4,42.1c0-3.7,0-7.3,0-11c0-0.7-0.2-0.9-0.9-0.9c-3.1,0-6.2,0-9.4,0c-0.6,0-0.8,0.2-0.8,0.8
				c0,7.3,0,14.6,0,22c0,2.1,1.7,3.7,3.8,3.8c1,0,2,0,3,0c2.6,0,4.2-1.6,4.2-4.2C18.4,49.1,18.4,45.6,18.4,42.1z"/>
		</g>
		<g>
			<path class="st0" d="M21.2,24.6c0.9,0,2.4,0.2,2.7-0.6c0.3-0.7,0.2-1.7,0.2-2.6c0-2.1,0.1-4.2,0-6.2c0-0.2,0-0.5,0.2-0.7
				c0.2-0.1,0.5-0.1,0.8-0.1s0.6,0,0.8,0.1c0.3,0.1,0.3,0.4,0.3,0.7c0,11.4,0,22.7,0,34.1c0,2.4-1.4,4.1-3.5,5.2
				c-0.4,0.2-0.9,0.5-1.4,0.5c-0.3-0.8-0.1-2.1,0.4-2.3c1.8-0.8,2.5-2.2,2.5-4.2c0-7,0-14.1,0-21.1c0-0.8-0.1-1.1-1-1.1
				C21.3,26.3,21,26.7,21.2,24.6z"/>
		</g>
		<g>
			<path class="st0" d="M3.7,16.6c-0.8-0.8-1.1-2.1-0.6-3.3c0.6-1.2,1.6-1.6,3-1.6c4.5,0,9.1,0,13.6,0c1.3,0,2.4,0.4,3,1.5
				c0.6,1.2,0.3,2.3-0.5,3.4c-0.6,0.5-1.3,0.8-2.1,0.8c-4.8,0-9.6,0-14.4,0C4.9,17.4,4.2,17.1,3.7,16.6z M12.9,15.3c2.3,0,4.7,0,7,0
				c0.5,0,1-0.1,1-0.8c0-0.6-0.4-0.8-1-0.8c-0.9,0-1.7,0-2.6,0c-3.8,0-7.6,0-11.3,0c-0.6,0-1.1,0-1.1,0.8c0,0.7,0.6,0.7,1.1,0.7
				C8.3,15.3,10.6,15.3,12.9,15.3z"/>
		</g>
		<g>
			<path class="st0" d="M23.5,11.3L23.5,11.3c0.8,0,1.5,0,2.2,0c0.5,0,0.9-0.2,0.9-0.8s-0.5-0.7-1-0.7c-2.6,0-5.3,0-7.9,0
				c-1.3,0-2.6,0-3.9,0c-0.7,0-1.3,0-2,0c-0.5,0-1,0-1.2,0.5c-0.3,0.6-0.6,0.8-1.3,0.8c-0.2,0-0.5,0-0.7-0.2C8.1,10.5,8.7,9.2,9,8.8
				c0.5-0.7,1.3-1.1,2.2-1.1c4.9,0,9.9,0,14.8,0c1.5,0,2.7,1.3,2.7,2.8c0,1.3-1,2.6-2.3,2.8c-0.7,0.1-1.5,0.1-2.2,0.1
				c-0.2,0-0.5,0-0.7-0.1s-0.4-0.2-0.6-0.4c-0.2-0.3-0.2-0.6-0.2-1c0-0.2,0-0.3,0.2-0.5C23.1,11.4,23.3,11.3,23.5,11.3z"/>
		</g>
		
			<linearGradient id="SVGID_1_" gradientUnits="userSpaceOnUse" x1="21.1844" y1="375.364" x2="23.5574" y2="375.364" gradientTransform="matrix(1 0 0 1 0 -336)">
			<stop  offset="0" style="stop-color:#1A93DA"/>
			<stop  offset="1" style="stop-color:#2154CF"/>
		</linearGradient>
		<path class="st1" d="M21.2,39.4c0-3.8,0-7.6,0-11.5c0-0.3,0-0.7,0.3-0.9c0.4-0.3,1-0.3,1.4-0.1c0.5,0.1,0.7,0.5,0.7,0.9
			c0,5.1,0,10.2,0,15.4c0,1.9,0,3.7,0,5.6c0,1.2-0.6,2.2-1.6,2.9c-0.2,0.1-0.4,0.4-0.7,0.2c-0.1-0.1-0.1-0.4-0.1-0.6
			C21.2,47.3,21.2,43.3,21.2,39.4z"/>
		
			<linearGradient id="SVGID_2_" gradientUnits="userSpaceOnUse" x1="7.9208" y1="379.6" x2="17.8426" y2="379.6" gradientTransform="matrix(1 0 0 1 0 -336)">
			<stop  offset="0" style="stop-color:#1A93DA"/>
			<stop  offset="1" style="stop-color:#2154CF"/>
		</linearGradient>
		<path class="st2" d="M17.8,42.3c0,3.4,0,6.9,0,10.3c0,2-1.4,3.5-3.4,3.6c-1,0-2.1,0-3.1,0c-1.9-0.1-3.4-1.5-3.4-3.4c0-7,0-14,0-21
			c0-0.7,0.2-0.8,0.9-0.8c2.7,0,5.4,0,8.1,0c0.8,0,0.9,0.3,0.9,1C17.8,35.4,17.8,38.8,17.8,42.3L17.8,42.3z M11.3,47.4
			c0.6,0,1-0.5,1-1.1c0-0.7-0.4-1.1-1.1-1.2c-0.7,0-1.1,0.4-1.2,1.1C9.9,46.8,10.4,47.3,11.3,47.4z M15.7,42.6
			c0-0.7-0.4-1.1-1.1-1.2c-0.6,0-1.3,0.6-1.2,1.2c0.1,0.7,0.5,1.1,1.1,1.1C15.3,43.7,15.7,43.3,15.7,42.6z M15.8,50.3
			c0-0.7-0.5-1.1-1.1-1.2c-0.7,0-1.1,0.4-1.2,1.1c-0.1,0.6,0.5,1.2,1.2,1.2C15.4,51.4,15.7,50.9,15.8,50.3z M11.2,39.8
			c0.8-0.1,1.1-0.6,1.1-1.2c0-0.6-0.5-1.1-1.2-1.1c-0.6,0-1.2,0.6-1.1,1.2C10.1,39.5,10.5,39.8,11.2,39.8z"/>
	</g>
	<g>
		<g>
			<path class="st0" d="M26.9,19.9c0.9,0,2.4,0.2,2.7-0.6c0.3-0.7,0.2-1.7,0.2-2.6c0-2.1,0.1-4.2,0-6.2c0-0.2,0-0.5,0.2-0.7
				c0.2-0.1,0.5-0.1,0.8-0.1s0.6,0,0.8,0.1c0.3,0.1,0.3,0.4,0.3,0.7c0,11.4,0,22.7,0,34.1c0,2.4-1.4,4.1-3.5,5.2
				C28,50,27.5,50.3,27,50.3c-0.3-0.8-0.1-2.1,0.4-2.3c1.8-0.8,2.5-2.2,2.5-4.2c0-7,0-14.1,0-21.1c0-0.8-0.1-1.1-1-1.1
				C27,21.6,26.7,22,26.9,19.9z"/>
		</g>
		<g>
			<path class="st0" d="M29.2,6.6L29.2,6.6c0.8,0,1.5,0,2.2,0c0.5,0,0.9-0.2,0.9-0.8s-0.5-0.7-1-0.7c-2.6,0-5.3,0-7.9,0
				c-1.3,0-2.6,0-3.9,0c-0.7,0-1.3,0-2,0c-0.5,0-1,0-1.2,0.5C16,6.2,15.7,6.4,15,6.4c-0.2,0-0.5,0-0.7-0.2c-0.5-0.4,0.1-1.7,0.4-2.1
				C15.2,3.4,16,3,16.9,3c4.9,0,9.9,0,14.8,0c1.5,0,2.7,1.3,2.7,2.8c0,1.3-1,2.6-2.3,2.8c-0.7,0.1-1.5,0.1-2.2,0.1
				c-0.2,0-0.5,0-0.7-0.1s-0.4-0.2-0.6-0.4c-0.2-0.3-0.2-0.6-0.2-1c0-0.2,0-0.3,0.2-0.5C28.7,6.7,29,6.6,29.2,6.6z"/>
		</g>
		
			<linearGradient id="SVGID_3_" gradientUnits="userSpaceOnUse" x1="26.8707" y1="370.6639" x2="29.2438" y2="370.6639" gradientTransform="matrix(1 0 0 1 0 -336)">
			<stop  offset="0" style="stop-color:#1A93DA"/>
			<stop  offset="1" style="stop-color:#2154CF"/>
		</linearGradient>
		<path class="st3" d="M26.9,34.7c0-3.8,0-7.6,0-11.5c0-0.3,0-0.7,0.3-0.9c0.4-0.3,1-0.3,1.4-0.1c0.5,0.1,0.7,0.5,0.7,0.9
			c0,5.1,0,10.2,0,15.4c0,1.9,0,3.7,0,5.6c0,1.2-0.6,2.2-1.6,2.9c-0.2,0.1-0.4,0.4-0.7,0.2c-0.1-0.1-0.1-0.4-0.1-0.6
			C26.9,42.6,26.9,38.6,26.9,34.7z"/>
	</g>
</g>
</svg>
